<svg xmlns="http://www.w3.org/2000/svg"  viewBox="0 0 24 24" width="288px" height="288px"><path d="M 9 2 C 6.8026661 2 5 3.8026661 5 6 C 5 7.2109385 5.5762461 8.2644437 6.4355469 9 C 5.5762461 9.7355563 5 10.789062 5 12 C 5 13.197151 5.5462051 14.264845 6.3886719 15 C 5.5462051 15.735155 5 16.802849 5 18 C 5 20.197334 6.8026661 22 9 22 C 11.197334 22 13 20.197334 13 18 L 13 15.445312 C 13.581148 15.768253 14.234839 16 15 16 C 16.25 16 17.314774 15.495244 17.998047 14.726562 C 18.681319 13.957882 19 12.972222 19 12 C 19 11.027778 18.681319 10.042119 17.998047 9.2734375 C 17.897054 9.1598209 17.771325 9.0661507 17.654297 8.9648438 C 18.472764 8.230691 19 7.1773467 19 6 C 19 3.8026661 17.197334 2 15 2 L 9 2 z M 9 4 L 15 4 C 16.116666 4 17 4.8833339 17 6 C 17 7.1166661 16.116666 8 15 8 L 12 8 L 9 8 C 7.8833339 8 7 7.1166661 7 6 C 7 4.8833339 7.8833339 4 9 4 z M 9 10 L 11 10 L 11 12 L 11 14 L 9 14 C 7.8833339 14 7 13.116666 7 12 C 7 10.883334 7.8833339 10 9 10 z M 15 10 C 15.749999 10 16.185226 10.245244 16.501953 10.601562 C 16.81868 10.957882 17 11.472222 17 12 C 17 12.527778 16.81868 13.042119 16.501953 13.398438 C 16.185226 13.754755 15.749999 14 15 14 C 14.250001 14 13.814774 13.754756 13.498047 13.398438 C 13.18132 13.042118 13 12.527778 13 12 C 13 11.472222 13.18132 10.957881 13.498047 10.601562 C 13.814774 10.245245 14.250001 10 15 10 z M 9 16 L 11 16 L 11 18 C 11 19.116666 10.116666 20 9 20 C 7.8833339 20 7 19.116666 7 18 C 7 16.883334 7.8833339 16 9 16 z"/></svg>